<svg xmlns="http://www.w3.org/2000/svg" width="21.226" height="13.269" viewBox="0 0 21.226 13.269"><defs><style>.a{fill:#8836ff;}</style></defs><path class="a" d="M10.936,13.741a3.14,3.14,0,0,0-2.384-3.3,2.788,2.788,0,0,0,1.783-2.719C10.335,5.132,8.4,4.5,6.159,4.5H0V17.522H6.332C8.706,17.522,10.936,16.387,10.936,13.741ZM2.871,6.723H5.566c1.036,0,1.968.29,1.968,1.488,0,1.106-.725,1.551-1.751,1.551H2.871Zm0,8.588V11.724H6c1.264,0,2.064.525,2.064,1.859,0,1.315-.954,1.727-2.123,1.727Z" transform="translate(0 -4.5)"/><path class="a" d="M18.164,18.2a4.216,4.216,0,0,0,4.426-3.171H20.3a2.152,2.152,0,0,1-2.053,1.23,2.135,2.135,0,0,1-2.322-2.4h6.823c.216-3.023-1.468-5.6-4.582-5.6a4.745,4.745,0,0,0-4.84,4.99A4.6,4.6,0,0,0,18.164,18.2Zm-.081-7.984a1.933,1.933,0,0,1,2.071,2.014H15.926a2.028,2.028,0,0,1,2.157-2.014Z" transform="translate(-1.538 -4.934)"/><path class="a" d="M15.667,5.273h5.3V6.556h-5.3Z" transform="translate(-1.808 -4.589)"/></svg>