<svg xmlns="http://www.w3.org/2000/svg" width="18.432" height="18.432" viewBox="0 0 18.432 18.432"><defs><style>.a{fill:#8836ff;}</style></defs><path class="a" d="M17.216,8a9.216,9.216,0,1,0,9.216,9.216A9.227,9.227,0,0,0,17.216,8Zm7.68,9.216c0,.129-.013.255-.019.383a17.936,17.936,0,0,0-5.114.612,20.686,20.686,0,0,0-.569-2.094c-.126-.387-.27-.769-.42-1.148a14.459,14.459,0,0,0,4.181-2.839A7.64,7.64,0,0,1,24.9,17.216Zm-3.07-6.127a12.885,12.885,0,0,1-3.67,2.475A16.665,16.665,0,0,0,15.6,9.71a7.609,7.609,0,0,1,6.225,1.378ZM14,10.253a14.463,14.463,0,0,1,2.739,3.9c-.379.14-.766.274-1.168.4a16.572,16.572,0,0,1-5.773.725A7.7,7.7,0,0,1,14,10.253ZM9.536,17.216c0-.143.014-.283.022-.425.366.03.738.05,1.123.05a18.912,18.912,0,0,0,5.328-.821c.465-.14.912-.3,1.348-.46.135.342.264.687.378,1.036a19.133,19.133,0,0,1,.553,2.056,15.64,15.64,0,0,0-6.51,3.981A7.654,7.654,0,0,1,9.536,17.216Zm3.43,6.391a13.93,13.93,0,0,1,5.574-3.415,12.968,12.968,0,0,1-.214,4.614,7.5,7.5,0,0,1-5.361-1.2Zm7.022.763a15.481,15.481,0,0,0,.039-4.639,16.931,16.931,0,0,1,4.618-.6A7.7,7.7,0,0,1,19.988,24.37Z" transform="translate(-8 -8)"/></svg>