<svg xmlns="http://www.w3.org/2000/svg" width="18.742" height="18.746" viewBox="0 0 18.742 18.746"><defs><style>.a{fill:#8836ff;}</style></defs><path class="a" d="M19.143,5.511a6.85,6.85,0,0,0-.436-2.274A4.8,4.8,0,0,0,15.965.494,6.867,6.867,0,0,0,13.691.059C12.687.011,12.368,0,9.823,0S6.96.011,5.96.055A6.852,6.852,0,0,0,3.686.491,4.574,4.574,0,0,0,2.023,1.575,4.615,4.615,0,0,0,.943,3.234,6.868,6.868,0,0,0,.507,5.508C.46,6.511.449,6.83.449,9.375S.46,12.238.5,13.238a6.849,6.849,0,0,0,.436,2.274,4.8,4.8,0,0,0,2.743,2.743,6.868,6.868,0,0,0,2.274.436c1,.044,1.318.055,3.863.055s2.864-.011,3.863-.055a6.848,6.848,0,0,0,2.274-.436A4.8,4.8,0,0,0,18.7,15.512a6.873,6.873,0,0,0,.436-2.274c.044-1,.055-1.318.055-3.863s0-2.864-.048-3.863Zm-1.688,7.654a5.138,5.138,0,0,1-.322,1.739,3.11,3.11,0,0,1-1.78,1.78,5.156,5.156,0,0,1-1.739.322c-.989.044-1.285.055-3.786.055s-2.8-.011-3.787-.055A5.135,5.135,0,0,1,4.3,16.684a2.885,2.885,0,0,1-1.077-.7,2.914,2.914,0,0,1-.7-1.077A5.157,5.157,0,0,1,2.2,13.169c-.044-.989-.055-1.285-.055-3.787s.011-2.8.055-3.786a5.135,5.135,0,0,1,.322-1.739,2.849,2.849,0,0,1,.7-1.077A2.91,2.91,0,0,1,4.3,2.08a5.16,5.16,0,0,1,1.739-.322C7.033,1.714,7.33,1.7,9.831,1.7s2.8.011,3.787.055a5.138,5.138,0,0,1,1.739.322,2.882,2.882,0,0,1,1.077.7,2.914,2.914,0,0,1,.7,1.077A5.159,5.159,0,0,1,17.455,5.6c.044.989.055,1.285.055,3.786s-.011,2.794-.055,3.783Zm0,0" transform="translate(-0.449 0)"/><path class="a" d="M129.765,124.5a4.816,4.816,0,1,0,4.816,4.816A4.817,4.817,0,0,0,129.765,124.5Zm0,7.939a3.124,3.124,0,1,1,3.124-3.124A3.124,3.124,0,0,1,129.765,132.439Zm0,0" transform="translate(-120.39 -119.941)"/><path class="a" d="M364.7,89.726a1.124,1.124,0,1,1-1.124-1.124A1.124,1.124,0,0,1,364.7,89.726Zm0,0" transform="translate(-349.193 -85.357)"/></svg>