<svg xmlns="http://www.w3.org/2000/svg" width="16.25" height="16.25" viewBox="0 0 16.25 16.25"><defs><style>.a{fill:#8836ff;}</style></defs><path class="a" d="M18.987,18.7h0v-5.96c0-2.915-.628-5.161-4.036-5.161a3.538,3.538,0,0,0-3.187,1.752h-.047V7.846H8.489V18.695h3.365V13.323c0-1.414.268-2.782,2.02-2.782,1.726,0,1.752,1.614,1.752,2.873V18.7Z" transform="translate(-2.741 -2.446)"/><path class="a" d="M.4,7.977H3.765V18.826H.4Z" transform="translate(-0.128 -2.576)"/><path class="a" d="M1.951,0A1.96,1.96,0,1,0,3.9,1.951,1.952,1.952,0,0,0,1.951,0Z"/></svg>