<?xml version="1.0" standalone="no"?>
<!DOCTYPE svg PUBLIC "-//W3C//DTD SVG 20010904//EN"
 "http://www.w3.org/TR/2001/REC-SVG-20010904/DTD/svg10.dtd">
<svg version="1.0" xmlns="http://www.w3.org/2000/svg"
 width="246.000000pt" height="246.000000pt" viewBox="0 0 246.000000 246.000000"
 preserveAspectRatio="xMidYMid meet">
<metadata>
Created by potrace 1.11, written by Peter Selinger 2001-2013
</metadata>
<g transform="translate(0.000000,246.000000) scale(0.100000,-0.100000)"
fill="#000000" stroke="none">
<path d="M1350 2227 c-3 -3 -27 -8 -55 -11 -127 -14 -297 -82 -420 -167 -183
-126 -330 -327 -389 -532 -23 -80 -29 -110 -41 -201 -2 -21 -6 -40 -7 -41 -2
-1 -34 -12 -73 -24 -147 -48 -247 -121 -288 -211 -16 -34 -21 -66 -22 -130 0
-73 4 -93 28 -142 34 -69 92 -121 161 -145 85 -28 272 -18 369 22 9 4 17 3 17
-2 0 -31 179 -203 275 -265 92 -58 240 -120 321 -133 20 -3 40 -8 46 -11 17
-11 262 -13 313 -3 28 5 63 12 78 14 109 20 285 101 385 179 180 139 328 358
367 543 7 35 14 65 21 93 3 14 7 75 10 135 3 100 -3 163 -30 288 -19 85 -109
272 -164 338 -68 84 -102 120 -155 166 -123 104 -284 184 -442 219 -69 15
-295 31 -305 21z"/>
</g>
</svg>
