<?xml version="1.0" standalone="no"?>
<!DOCTYPE svg PUBLIC "-//W3C//DTD SVG 20010904//EN"
 "http://www.w3.org/TR/2001/REC-SVG-20010904/DTD/svg10.dtd">
<svg version="1.0" xmlns="http://www.w3.org/2000/svg"
 width="260.000000pt" height="260.000000pt" viewBox="0 0 260.000000 260.000000"
 preserveAspectRatio="xMidYMid meet">
<metadata>
Created by potrace 1.11, written by Peter Selinger 2001-2013
</metadata>
<g transform="translate(0.000000,260.000000) scale(0.100000,-0.100000)"
fill="#000000" stroke="none">
<path d="M0 1300 l0 -1300 1300 0 1300 0 0 1300 0 1300 -1300 0 -1300 0 0
-1300z m2590 770 c0 -409 -3 -520 -13 -520 -10 0 -55 9 -187 39 -116 27 -266
90 -335 141 -22 16 -49 34 -60 39 -11 5 -38 28 -60 50 -21 23 -44 41 -50 41
-7 0 -96 -171 -199 -381 l-186 -380 2 -322 3 -322 140 -15 140 -15 3 -73 3
-72 -486 0 -486 0 3 73 3 72 135 13 c74 8 137 16 140 19 3 2 6 138 8 301 l3
297 -259 530 -259 530 -49 7 c-27 4 -75 10 -106 13 l-58 6 0 70 0 69 460 0
460 0 0 -70 0 -69 -32 -5 c-18 -3 -76 -10 -128 -16 -52 -6 -96 -12 -97 -14 -2
-2 76 -176 173 -387 96 -211 181 -397 189 -414 l13 -30 62 130 c143 300 288
622 292 645 5 42 -20 58 -112 72 l-85 13 -3 78 -3 77 80 0 80 0 -9 30 c-5 16
-8 84 -8 150 l1 120 439 0 438 0 0 -520z m-2551 -1940 c7 -25 17 -53 22 -62 5
-10 9 -27 9 -38 0 -16 -7 -20 -30 -20 l-30 0 0 92 c0 96 8 104 29 28z"/>
</g>
</svg>
