<?xml version="1.0" standalone="no"?>
<!DOCTYPE svg PUBLIC "-//W3C//DTD SVG 20010904//EN"
 "http://www.w3.org/TR/2001/REC-SVG-20010904/DTD/svg10.dtd">
<svg version="1.0" xmlns="http://www.w3.org/2000/svg"
 width="260.000000pt" height="260.000000pt" viewBox="0 0 260.000000 260.000000"
 preserveAspectRatio="xMidYMid meet">
<metadata>
Created by potrace 1.11, written by Peter Selinger 2001-2013
</metadata>
<g transform="translate(0.000000,260.000000) scale(0.100000,-0.100000)"
fill="#000000" stroke="none">
<path d="M1488 2215 c-2 -2 -34 -5 -73 -8 -68 -5 -81 -7 -174 -28 -57 -13
-205 -70 -209 -81 -2 -4 -9 -8 -17 -8 -15 0 -140 -82 -176 -116 -14 -14 -37
-25 -50 -26 -57 -1 -105 -51 -89 -93 4 -11 4 -27 -1 -36 -11 -22 -4 -55 20
-85 l20 -25 -27 -52 c-33 -66 -38 -178 -12 -284 12 -51 14 -77 6 -90 -14 -26
-25 -103 -14 -109 4 -3 6 -9 3 -14 -3 -5 12 -27 35 -50 37 -37 44 -40 95 -40
30 0 56 -4 56 -10 3 -19 5 -25 27 -74 12 -27 22 -49 22 -50 0 0 -21 -1 -48 -2
-121 -2 -196 -43 -229 -126 -17 -42 -43 -58 -95 -58 -61 0 -130 -47 -163 -110
-24 -47 -34 -143 -19 -187 7 -21 18 -39 25 -42 6 -2 -5 -20 -24 -40 -32 -33
-112 -137 -147 -191 -8 -12 -23 -33 -32 -45 -10 -13 -18 -26 -18 -29 0 -3 -13
-28 -30 -56 l-29 -50 1013 0 1014 0 -3 39 c-1 21 -8 47 -14 58 -5 11 -8 23 -4
26 3 4 1 12 -4 19 -6 7 -13 27 -16 43 -8 43 -63 160 -105 223 -45 68 -115 140
-175 177 -34 22 -47 37 -47 53 0 63 -70 143 -145 164 l-46 14 61 29 c112 54
164 126 161 225 -2 56 -3 67 -15 156 -4 28 -9 68 -11 90 -2 21 -7 51 -10 66
-3 16 -7 40 -9 55 -13 94 -20 135 -35 196 -15 57 -16 69 -4 76 12 6 19 24 22
54 1 4 7 7 14 6 62 -8 127 35 127 83 0 18 9 28 34 38 42 16 63 50 48 76 -8 14
-5 25 14 47 27 32 29 48 13 79 -15 28 -146 83 -224 94 -11 1 -20 3 -20 4 0 2
-21 6 -80 14 -46 7 -183 15 -187 11z"/>
</g>
</svg>
