<svg id="icon_outlined_brand-and-logos_behance" data-name="icon/outlined/brand-and-logos/behance" xmlns="http://www.w3.org/2000/svg" xmlns:xlink="http://www.w3.org/1999/xlink" width="24" height="24" viewBox="0 0 24 24">
  <defs>
    <clipPath id="clip-path">
      <rect id="icon_outlined_brand-and-logos_behance_clip_mask_" data-name="icon/outlined/brand-and-logos/behance (clip mask)" width="24" height="24" transform="translate(0.001)" fill="none"/>
    </clipPath>
  </defs>
  <rect id="icon_outlined_brand-and-logos_behance_clip_mask_2" data-name="icon/outlined/brand-and-logos/behance (clip mask)" width="24" height="24" fill="none"/>
  <g id="icon_outlined_brand-and-logos_behance-2" data-name="icon/outlined/brand-and-logos/behance" transform="translate(-0.001)" clip-path="url(#clip-path)">
    <g id="icon_outlined_brand-and-logos_behance_clip_group_" data-name="icon/outlined/brand-and-logos/behance (clip group)">
      <rect id="icon_outlined_brand-and-logos_behance_style_" data-name="icon/outlined/brand-and-logos/behance (style)" width="24" height="24" transform="translate(0.001)" fill="none"/>
      <path id="Vector" d="M14.676,11.763a4.2,4.2,0,0,1-3.124-1.218A4.469,4.469,0,0,1,10.4,7.376a4.208,4.208,0,0,1,4.272-4.424A3.785,3.785,0,0,1,17.688,4.29a4.965,4.965,0,0,1,1.05,3.193c0,.128-.007.254-.013.376l0,.055H12.7a2.2,2.2,0,0,0,.529,1.577,2.021,2.021,0,0,0,1.519.549,1.888,1.888,0,0,0,1.812-1.09h2.022A3.722,3.722,0,0,1,14.676,11.763ZM14.6,4.681a1.79,1.79,0,0,0-1.9,1.786h3.733A1.715,1.715,0,0,0,14.6,4.681ZM5.59,11.541H0V0H5.438A4.813,4.813,0,0,1,8.022.566a2.512,2.512,0,0,1,1.1,2.29,2.467,2.467,0,0,1-1.575,2.41,2.794,2.794,0,0,1,2.1,2.922,3.016,3.016,0,0,1-1.245,2.555A4.84,4.84,0,0,1,5.59,11.541ZM2.533,6.4V9.581h2.71c1.244,0,1.875-.515,1.875-1.531C7.118,6.958,6.505,6.4,5.3,6.4Zm0-4.435V4.662h2.57c1.279,0,1.547-.747,1.547-1.373,0-.888-.569-1.32-1.739-1.32ZM16.91,1.913H12.235V.778H16.91V1.912Z" transform="translate(2.626 6.12)"/>
    </g>
  </g>
</svg>
