<svg xmlns="http://www.w3.org/2000/svg" xmlns:xlink="http://www.w3.org/1999/xlink" width="24" height="24" viewBox="0 0 24 24">
  <defs>
    <clipPath id="clip-path">
      <rect id="icon_outlined_brand-and-logos_dribbble_clip_mask_" data-name="icon/outlined/brand-and-logos/dribbble (clip mask)" width="24" height="24" fill="none"/>
    </clipPath>
  </defs>
  <g id="icon_outlined_brand-and-logos_dribbble" data-name="icon/outlined/brand-and-logos/dribbble" transform="translate(0)">
    <rect id="icon_outlined_brand-and-logos_dribbble_clip_mask_2" data-name="icon/outlined/brand-and-logos/dribbble (clip mask)" width="24" height="24" fill="none"/>
    <g id="icon_outlined_brand-and-logos_dribbble-2" data-name="icon/outlined/brand-and-logos/dribbble" transform="translate(0)" clip-path="url(#clip-path)">
      <g id="icon_outlined_brand-and-logos_dribbble_clip_group_" data-name="icon/outlined/brand-and-logos/dribbble (clip group)">
        <rect id="icon_outlined_brand-and-logos_dribbble_style_" data-name="icon/outlined/brand-and-logos/dribbble (style)" width="24" height="24" fill="none"/>
        <path id="Vector" d="M9.75,19.5A9.75,9.75,0,1,1,19.5,9.75,9.761,9.761,0,0,1,9.75,19.5Zm1.474-8.389-.054.019a11.353,11.353,0,0,0-6.531,5.2A8.228,8.228,0,0,0,9.75,18.089h.02A8.185,8.185,0,0,0,13,17.429,34.607,34.607,0,0,0,11.224,11.111Zm3.293-.515a11.005,11.005,0,0,0-1.732.134A35.786,35.786,0,0,1,14.4,16.666a8.356,8.356,0,0,0,3.569-5.58A12.163,12.163,0,0,0,14.517,10.6ZM1.427,9.506c0,.093,0,.179,0,.256a8.317,8.317,0,0,0,2.139,5.569,13.322,13.322,0,0,1,6.772-5.5c.1-.032.206-.064.328-.1-.2-.446-.423-.922-.675-1.413a30.941,30.941,0,0,1-8.3,1.188C1.558,9.508,1.469,9.507,1.427,9.506ZM14.2,9.3a20.211,20.211,0,0,1,3.875.381A8.33,8.33,0,0,0,16.2,4.5a11.2,11.2,0,0,1-4.649,3.286c.2.4.383.808.553,1.207.061.144.121.289.178.429A15.474,15.474,0,0,1,14.2,9.3ZM6.208,2.227A8.389,8.389,0,0,0,1.6,8.058h.135A31.228,31.228,0,0,0,9.3,7.043,52.163,52.163,0,0,0,6.208,2.227ZM9.75,1.435A8.311,8.311,0,0,0,7.8,1.667l.013.015a44.116,44.116,0,0,1,3.095,4.859,9.468,9.468,0,0,0,4.364-3.01A8.318,8.318,0,0,0,9.75,1.435Z" transform="translate(2.25 2.25)"/>
      </g>
    </g>
  </g>
</svg>
