<svg id="icon_outlined_brand-and-logos_github" data-name="icon/outlined/brand-and-logos/github" xmlns="http://www.w3.org/2000/svg" xmlns:xlink="http://www.w3.org/1999/xlink" width="24" height="24" viewBox="0 0 24 24">
  <defs>
    <clipPath id="clip-path">
      <rect id="icon_outlined_brand-and-logos_github_clip_mask_" data-name="icon/outlined/brand-and-logos/github (clip mask)" width="24" height="24" fill="none"/>
    </clipPath>
  </defs>
  <rect id="icon_outlined_brand-and-logos_github_clip_mask_2" data-name="icon/outlined/brand-and-logos/github (clip mask)" width="24" height="24" fill="none"/>
  <g id="icon_outlined_brand-and-logos_github-2" data-name="icon/outlined/brand-and-logos/github" clip-path="url(#clip-path)">
    <g id="icon_outlined_brand-and-logos_github_clip_group_" data-name="icon/outlined/brand-and-logos/github (clip group)">
      <rect id="icon_outlined_brand-and-logos_github_style_" data-name="icon/outlined/brand-and-logos/github (style)" width="24" height="24" fill="none"/>
      <path id="Vector" d="M10.491,0A10.485,10.485,0,0,0,7.027,20.384c.551.138.466-.253.466-.52V18.047c-3.18.373-3.309-1.732-3.523-2.084-.431-.736-1.451-.924-1.146-1.275.724-.373,1.463.094,2.318,1.357a2.216,2.216,0,0,0,2.438.609,2.956,2.956,0,0,1,.813-1.425c-3.3-.591-4.669-2.6-4.669-4.992A4.614,4.614,0,0,1,4.856,7.151a4.089,4.089,0,0,1,.115-2.813A4.8,4.8,0,0,1,7.859,5.4,10.183,10.183,0,0,1,10.5,5.081a10.191,10.191,0,0,1,2.66.326,4.7,4.7,0,0,1,2.843-1.029,4.117,4.117,0,0,1,.129,2.766,4.616,4.616,0,0,1,1.146,3.1c0,2.4-1.383,4.409-4.688,4.99a2.989,2.989,0,0,1,.893,2.133V20c.019.211,0,.42.351.42A10.486,10.486,0,0,0,10.491,0Z" transform="translate(1.5 1.788)"/>
    </g>
  </g>
</svg>
