<svg xmlns="http://www.w3.org/2000/svg" xmlns:xlink="http://www.w3.org/1999/xlink" width="27" height="27" viewBox="0 0 27 27">
  <defs>
    <clipPath id="clip-path">
      <rect id="Rectangle_193" data-name="Rectangle 193" width="27" height="27" transform="translate(2398 9636)" fill="#8836ff"/>
    </clipPath>
  </defs>
  <g id="Mask_Group_52" data-name="Mask Group 52" transform="translate(-2398 -9636)" clip-path="url(#clip-path)">
    <g id="instagram_1_" data-name="instagram (1)" transform="translate(2399.273 9636.946)">
      <path id="Path_33" data-name="Path 33" d="M24.374,7.054a8.767,8.767,0,0,0-.558-2.911,6.146,6.146,0,0,0-3.51-3.51A8.789,8.789,0,0,0,17.4.075C16.112.014,15.7,0,12.447,0S8.782.014,7.5.07a8.769,8.769,0,0,0-2.91.558A5.854,5.854,0,0,0,2.464,2.015,5.907,5.907,0,0,0,1.081,4.138a8.79,8.79,0,0,0-.558,2.91C.463,8.333.449,8.741.449,12s.014,3.665.07,4.944a8.766,8.766,0,0,0,.558,2.911,6.145,6.145,0,0,0,3.51,3.51,8.79,8.79,0,0,0,2.911.558c1.279.056,1.687.07,4.944.07s3.665-.014,4.944-.07a8.764,8.764,0,0,0,2.91-.558,6.137,6.137,0,0,0,3.51-3.51,8.8,8.8,0,0,0,.558-2.911c.056-1.28.07-1.687.07-4.944s0-3.665-.061-4.944Zm-2.16,9.8a6.576,6.576,0,0,1-.412,2.226,3.98,3.98,0,0,1-2.278,2.278,6.6,6.6,0,0,1-2.226.412c-1.265.056-1.645.07-4.846.07s-3.585-.014-4.846-.07a6.572,6.572,0,0,1-2.226-.412A3.692,3.692,0,0,1,4,20.458a3.73,3.73,0,0,1-.9-1.378,6.6,6.6,0,0,1-.412-2.226c-.056-1.265-.07-1.645-.07-4.846s.014-3.585.07-4.846a6.572,6.572,0,0,1,.412-2.226,3.647,3.647,0,0,1,.9-1.378,3.724,3.724,0,0,1,1.378-.9A6.6,6.6,0,0,1,7.61,2.25c1.265-.056,1.645-.07,4.846-.07s3.585.014,4.846.07a6.576,6.576,0,0,1,2.226.412,3.689,3.689,0,0,1,1.378.9,3.729,3.729,0,0,1,.9,1.378,6.6,6.6,0,0,1,.412,2.226c.056,1.265.07,1.645.07,4.846s-.014,3.576-.07,4.841Zm0,0" transform="translate(-0.449 0)" fill="#8836ff"/>
      <path id="Path_34" data-name="Path 34" d="M131.112,124.5a6.163,6.163,0,1,0,6.163,6.163A6.165,6.165,0,0,0,131.112,124.5Zm0,10.161a4,4,0,1,1,4-4A4,4,0,0,1,131.112,134.661Zm0,0" transform="translate(-119.114 -118.665)" fill="#8836ff"/>
      <path id="Path_35" data-name="Path 35" d="M365.327,90.041a1.439,1.439,0,1,1-1.439-1.439A1.439,1.439,0,0,1,365.327,90.041Zm0,0" transform="translate(-345.484 -84.449)" fill="#8836ff"/>
    </g>
  </g>
</svg>
