<svg xmlns="http://www.w3.org/2000/svg" xmlns:xlink="http://www.w3.org/1999/xlink" width="27" height="27" viewBox="0 0 27 27">
  <defs>
    <clipPath id="clip-path">
      <rect id="Rectangle_196" data-name="Rectangle 196" width="27" height="27" transform="translate(2326 9636)"/>
    </clipPath>
  </defs>
  <g id="Mask_Group_55" data-name="Mask Group 55" transform="translate(-2326 -9636)" clip-path="url(#clip-path)">
    <path id="dribbble_2_" data-name="dribbble (2)" d="M19.795,8A11.795,11.795,0,1,0,31.59,19.795,11.808,11.808,0,0,0,19.795,8Zm9.829,11.795c0,.165-.017.326-.025.49a22.955,22.955,0,0,0-6.545.783,26.475,26.475,0,0,0-.728-2.679c-.162-.495-.345-.984-.538-1.469a18.5,18.5,0,0,0,5.351-3.633A9.777,9.777,0,0,1,29.624,19.795ZM25.7,11.953A16.49,16.49,0,0,1,21,15.121a21.328,21.328,0,0,0-3.27-4.932A9.738,9.738,0,0,1,25.7,11.953Zm-10.02-1.07a18.51,18.51,0,0,1,3.506,4.992c-.485.179-.98.351-1.495.506a21.209,21.209,0,0,1-7.388.927,9.856,9.856,0,0,1,5.378-6.425ZM9.966,19.795c0-.183.018-.363.028-.544.468.038.945.064,1.437.064a24.2,24.2,0,0,0,6.819-1.051c.6-.179,1.167-.379,1.725-.589.173.437.338.879.484,1.326a24.486,24.486,0,0,1,.708,2.631,20.016,20.016,0,0,0-8.331,5.1A9.8,9.8,0,0,1,9.966,19.795Zm4.39,8.18a17.828,17.828,0,0,1,7.134-4.37,16.6,16.6,0,0,1-.273,5.905,9.6,9.6,0,0,1-6.861-1.535Zm8.987.977a19.813,19.813,0,0,0,.05-5.937,21.669,21.669,0,0,1,5.91-.769A9.858,9.858,0,0,1,23.343,28.951Z" transform="translate(2319.478 9629.348)"/>
  </g>
</svg>
